<?xml version="1.0" encoding="UTF-8"?><svg id="uuid-2d59bbe8-4696-4493-a336-c7e3a4d49fd0" xmlns="http://www.w3.org/2000/svg" viewBox="0 0 128 128"><defs><style>.uuid-8fb00434-a893-45a9-b4cd-ea0e46414a57{fill:none;}.uuid-7226fc78-8b19-4f16-b9c1-ae8d6efe2714{fill:#394eee;}</style></defs><rect class="uuid-8fb00434-a893-45a9-b4cd-ea0e46414a57" width="128" height="128"/><path class="uuid-7226fc78-8b19-4f16-b9c1-ae8d6efe2714" d="M88.88766,86.67428c.17427-.08593,.3786-.08592,.55287,.00003l10.62464,5.24024c.11099,.05474,.18125,.16776,.18124,.29151s-.07031,.23676-.1813,.29147l-22.35255,11.01849c-.61899,.30512-1.34465,.30513-1.96364,.00002l-22.35373-11.0185c-.111-.05471-.1813-.16772-.18131-.29148s.07026-.23678,.18125-.29151l10.62583-5.24026c.17426-.08594,.37858-.08594,.55285-.00001l11.36459,5.60383c.49952,.24631,1.08517,.24631,1.58469,0l11.36457-5.60382Zm-35.49234-13.24968c-.11101,.05473-.1813,.16775-.18129,.29152s.07031,.23679,.18133,.2915l22.54335,11.11037c.49935,.2461,1.08473,.2461,1.58407-.00002l22.54215-11.11036c.11101-.05471,.18131-.16773,.18132-.2915s-.07028-.23679-.18129-.29152l-23.05785-11.3678c-.17423-.0859-.3785-.0859-.55273,0l-23.05906,11.3678Zm-6.58729-17.38203c-6.77395-16.52165,14.89978-25.6977,23.72952-11.36398,.13302,.21594,.40686,.29841,.63667,.19112,9.57825-4.47154,17.8429,2.38737,15.53411,12.23155-.07961,.33946,.08514,.68962,.39787,.8438l16.33831,8.05519c.08443,.04163,.18508,.0323,.26043-.02414s.11269-.15042,.0964-.24314c-.81166-4.62186-3.13095-8.72666-7.24796-12.03654-.10674-.08582-.17359-.21167-.18499-.34815-.92768-11.11225-10.30008-19.41313-22.01245-18.20831-.14129,.01453-.28208-.03175-.38727-.12719-14.00099-12.70342-35.22597-3.84588-36.89439,15.18709-.01521,.17351-.11974,.32662-.27567,.40422-26.65272,13.26528-12.04729,49.90724,16.00532,32.91183-25.01734,3.31854-23.90546-25.37561-5.99591-27.47336Z"/></svg>