<?xml version="1.0" encoding="UTF-8"?><svg id="uuid-54c92064-fdbb-4801-9fa5-dc6fca37b2bc" xmlns="http://www.w3.org/2000/svg" viewBox="0 0 128 128"><defs><style>.uuid-c041516f-f738-49c3-828c-694102c7abaf{fill:#007ac2;}</style></defs><path class="uuid-c041516f-f738-49c3-828c-694102c7abaf" d="M64.00018,26.9c-21.59458,0-39.10018,17.50578-39.10018,39.1s17.5056,39.1,39.10018,39.1,39.09982-17.5056,39.09982-39.1-17.5056-39.1-39.09982-39.1Zm0,69.18647c-7.92184,0-15.14487-2.98187-20.61694-7.87981,.33309-2.48127,1.3889-5.6505,3.01783-8.34521,1.66475-2.75466-.60553-5.14608-3.14823-6.41743-2.54271-1.27135-8.69493-2.92209-10.06384-5.57778s2.23232-4.57975,4.92685-6.09995c2.69453-1.52002-.43064-5.00241,1.62183-6.77482,2.88893-2.49447,4.3529-1.76053,5.5526-5.15831,.8063-2.2834-.72649-4.47989-2.53987-7.3564,8.41244-8.14195,16.80276-9.06638,21.14952-8.54648,15.48896,1.85258,6.77937,7.23877,7.91509,10.14472,1.13572,2.90595,5.61492,3.65589,5.19704,8.11329-.27243,2.90595-5.89137,1.66845-7.62423,1.66845-2.96377,0-10.059,5.21946-9.60318,9.85526,.55373,5.62922,2.30743,6.20739,5.95513,6.2833,3.64805,.07609,6.38373,.9881,5.16771,3.95188-1.21566,2.96395-1.6275,6.35735-.56367,10.53714,1.06419,4.17979,4.18015,2.12803,5.85164,.304,1.6722-1.82385,6.61182-6.91565,6.53591-10.10752-.07627-3.19187,2.65977-4.58387,4.33162-7.24382,1.67185-2.65977-.09755-7.55847-.09755-7.55847,3.08757,0,8.37351,.27989,8.1628,5.07974-.74884,17.06449-14.04742,31.12823-31.12805,31.12823Z"/></svg>